<svg id="Layer_1" data-name="Layer 1" xmlns="http://www.w3.org/2000/svg" viewBox="0 0 492.94 357.16"><defs><style>.cls-1{fill:#3f6499;}</style></defs><path class="cls-1" d="M293.53,361.42V718.58H786.47V361.42Zm142.2,226.05v26h-30V587.92a67.78,67.78,0,0,1-29.3-12.11L389,550.93c9.68,6.6,21.35,10.58,31.09,10.58,7.44,0,11.22-2.24,11.22-5.51,0-4.43-6.15-7.76-18.08-13.66-19-9.74-33.72-18.08-33.72-39,0-13.91,9.68-25.58,26.22-30v-26h30V473.1a72.15,72.15,0,0,1,24.42,11L448,508.62c-8.33-5.13-17.63-9.3-27.95-9.3-6.86,0-9.93,2-9.93,4.62,0,3.52,4.61,6.6,20.06,13.91C448.93,526.63,462,535.93,462,556,462,571.64,452.2,583.11,435.73,587.47Zm180.08.71H501.5V570.1H615.81Zm112.71,0H653.57V570.1h74.95Zm0-76.68h-227v-18h227Z" transform="translate(-293.53 -361.42)"/></svg>