<svg id="Layer_1" data-name="Layer 1" xmlns="http://www.w3.org/2000/svg" viewBox="0 0 116.54 156.57"><defs><style>.cls-1{fill:#3f6499;}</style></defs><path class="cls-1" d="M481.73,539.85V467.36c0-4.45,1.19-5.64,5.65-5.64H551c3.41,0,3.62.21,3.62,3.61q0,15.78,0,31.58c0,5.56,2.82,8.4,8.37,8.41h31.82c3.13,0,3.45.31,3.45,3.32q0,52.27,0,104.54c0,3.7-1.39,5.1-5,5.1H486.87c-3.8,0-5.14-1.38-5.14-5.25Zm60.77-2.7-.24-.07c-.07-.9-.06-1.82-.22-2.71-.6-3.44-2.07-5-4.73-5.2-2.44-.15-4.15,1.57-5.1,4.86a22.75,22.75,0,0,0,.57,13.61,5.32,5.32,0,0,1,.22,3c-1.41,4.15-2.8,8.32-4.6,12.31-2.54,5.63-5.17,11.32-11.62,13.72a3.8,3.8,0,0,0-1.44,1.08c-1.94,2.29-4.17,4.42-5.64,7-1.63,2.85,0,5.72,3.22,5.84a9.51,9.51,0,0,0,5.55-1.88c3.85-2.84,6.31-6.9,8.19-11.25a4.06,4.06,0,0,1,3.07-2.61c6.48-1.49,12.95-3,19.4-4.59a5.25,5.25,0,0,1,4.43.87A18.71,18.71,0,0,0,567.21,574a4.25,4.25,0,0,0,2.56-7.12,5.64,5.64,0,0,0-3-1.8,63.92,63.92,0,0,0-10.78-.67,9,9,0,0,1-6.33-1.64c-4.38-3.24-7-7.67-8.79-12.66a7.66,7.66,0,0,1-.2-3.69C541.13,543.33,541.86,540.25,542.5,537.15Z" transform="translate(-481.73 -461.72)"/><path class="cls-1" d="M595.55,501.76c-.71,0-1.42.12-2.13.12H563.23c-3.71,0-5.11-1.38-5.12-5q0-15.09,0-30.19V464.5l.8-.47q18.55,18.48,37,37Z" transform="translate(-481.73 -461.72)"/><path class="cls-1" d="M536.86,553.1c-2.36,5.76-4.89,12-7.37,18l17-4.43Z" transform="translate(-481.73 -461.72)"/><path class="cls-1" d="M567.21,570.35c-1.57-3.2-5.94-4.19-10.4-2.34C559,570.74,563.61,571.77,567.21,570.35Z" transform="translate(-481.73 -461.72)"/><path class="cls-1" d="M536.24,545c2.63-3.45,2.73-10.73.21-13C535.07,536.3,535.3,540.53,536.24,545Z" transform="translate(-481.73 -461.72)"/><path class="cls-1" d="M512.7,586.21c3.81-.53,8.32-5.12,8.42-8.47Z" transform="translate(-481.73 -461.72)"/></svg>