<svg id="Layer_1" data-name="Layer 1" xmlns="http://www.w3.org/2000/svg" viewBox="0 0 518.98 697.24"><defs><style>.cls-1{fill:#3f6499;}</style></defs><path class="cls-1" d="M280.51,539.34q0-161.42,0-322.84c0-19.81,5.3-25.11,25.15-25.11H589c15.18,0,16.12.93,16.12,16.06q0,70.34,0,140.67c0,24.76,12.59,37.4,37.31,37.43q70.84.09,141.67,0c14,0,15.37,1.34,15.37,14.78q0,232.77,0,465.54c0,16.45-6.19,22.7-22.52,22.7q-236.79,0-473.57,0c-16.9,0-22.85-6.12-22.86-23.38Q280.51,702.29,280.51,539.34Zm270.62-12.05-1.07-.28c-.3-4-.27-8.11-1-12.07-2.67-15.34-9.24-22.43-21.08-23.17-10.86-.68-18.48,7-22.7,21.63C499.39,534,501.39,554,507.84,574c1.36,4.24,2.33,9.58,1,13.57-6.26,18.46-12.46,37-20.46,54.8-11.31,25.09-23,50.43-51.75,61.12a16.64,16.64,0,0,0-6.45,4.79c-8.62,10.19-18.55,19.68-25.1,31.09-7.28,12.67-.15,25.48,14.36,26,8.21.29,17.92-3.39,24.68-8.37,17.17-12.66,28.11-30.75,36.5-50.09,2.89-6.67,6.94-10.06,13.68-11.63,28.83-6.67,57.65-13.35,86.37-20.47,7.55-1.88,13.29-.17,19.73,3.89,18.55,11.7,38.93,16.82,60.81,12.88,15.64-2.81,21.95-20.36,11.4-31.7-3.49-3.75-8.76-7.43-13.6-8-15.91-1.93-32.07-3.82-48-3-10.83.56-19.57-.93-28.19-7.3-19.51-14.43-31.23-34.18-39.18-56.4-1.78-5-1.75-11.12-.87-16.45C545.05,554.85,548.28,541.1,551.13,527.29Z" transform="translate(-280.51 -191.38)"/><path class="cls-1" d="M787.39,369.7c-3.17.19-6.34.52-9.51.53q-67.21,0-134.44,0c-16.5,0-22.76-6.14-22.78-22.35q-.06-67.24,0-134.47v-9.67l3.57-2.07Q706.84,284,789.09,366.62C788.53,367.65,788,368.67,787.39,369.7Z" transform="translate(-280.51 -191.38)"/><path class="cls-1" d="M526,598.35c-10.48,25.64-21.78,53.26-32.78,80.18l75.56-19.72C554.76,639,540.16,618.35,526,598.35Z" transform="translate(-280.51 -191.38)"/><path class="cls-1" d="M661.18,675.16c-7-14.27-26.44-18.65-46.33-10.44C624.66,676.88,645.13,681.5,661.18,675.16Z" transform="translate(-280.51 -191.38)"/><path class="cls-1" d="M523.24,562.29c11.72-15.38,12.15-47.79.93-58C518.05,523.54,519.05,542.35,523.24,562.29Z" transform="translate(-280.51 -191.38)"/><path class="cls-1" d="M418.44,745.79c17-2.37,37-22.79,37.47-37.71Z" transform="translate(-280.51 -191.38)"/></svg>